<?xml version="1.0" standalone="no"?>
<!DOCTYPE svg PUBLIC "-//W3C//DTD SVG 20010904//EN"
 "http://www.w3.org/TR/2001/REC-SVG-20010904/DTD/svg10.dtd">
<svg version="1.0" xmlns="http://www.w3.org/2000/svg"
 width="300.000000pt" height="300.000000pt" viewBox="0 0 300.000000 300.000000"
 preserveAspectRatio="xMidYMid meet">
<metadata>
Created by potrace 1.11, written by Peter Selinger 2001-2013
</metadata>
<g transform="translate(0.000000,300.000000) scale(0.100000,-0.100000)"
fill="#000000" stroke="none">
<path d="M0 2920 l0 -80 60 0 c180 0 428 -94 613 -233 104 -78 97 -80 162 28
60 100 92 225 86 338 l-1 27 -460 0 -460 0 0 -80z"/>
<path d="M2001 2996 c2 -2 128 -61 279 -130 151 -69 278 -130 283 -135 4 -4
-17 -102 -48 -217 -30 -115 -89 -339 -130 -499 -41 -159 -97 -375 -125 -480
-102 -390 -260 -996 -309 -1185 -28 -107 -60 -229 -71 -270 -11 -41 -20 -76
-20 -77 0 -2 257 -3 570 -3 l570 0 0 1500 0 1500 -502 0 c-276 0 -499 -2 -497
-4z"/>
<path d="M939 2605 c-26 -8 -68 -30 -95 -47 l-48 -33 3 -173 c3 -184 6 -203
59 -307 16 -33 42 -98 57 -145 50 -159 59 -222 59 -430 1 -107 4 -196 9 -197
17 -6 27 -1 73 37 26 22 60 44 76 49 24 8 30 6 48 -16 17 -22 20 -40 20 -117
0 -113 -14 -167 -81 -320 -50 -116 -52 -123 -53 -217 -1 -109 -15 -140 -75
-171 -37 -18 -26 -33 18 -23 36 8 76 50 89 95 6 19 15 72 21 117 6 47 32 146
58 225 48 143 48 143 48 278 -1 137 -12 197 -43 233 -29 33 -103 13 -136 -39
-32 -48 -41 -17 -28 108 6 62 14 165 17 228 3 63 8 142 10 175 3 33 10 125 15
205 6 80 17 199 25 264 16 129 10 179 -23 209 -27 24 -71 28 -123 12z"/>
<path d="M140 1983 c0 -16 57 -91 77 -101 17 -9 107 -19 373 -43 104 -9 134
-15 187 -41 35 -17 66 -34 69 -39 3 -5 9 -9 15 -9 23 0 4 33 -57 99 -47 51
-76 73 -102 80 -20 5 -120 19 -222 30 -282 31 -340 35 -340 24z"/>
<path d="M405 1683 c-53 -12 -88 -27 -115 -50 -33 -28 -42 -68 -12 -59 104 32
197 30 286 -6 28 -11 74 -26 102 -33 45 -11 57 -11 90 5 22 9 54 29 72 45 45
37 29 55 -48 55 -32 0 -110 11 -174 25 -111 24 -157 28 -201 18z"/>
<path d="M37 915 l-37 -26 0 -104 0 -104 73 2 c63 1 77 -2 115 -26 49 -31 197
-91 253 -101 42 -7 49 -22 49 -99 0 -142 -85 -347 -165 -397 -44 -27 -123 -27
-157 0 -61 47 -66 132 -14 211 l26 39 -37 0 c-21 0 -62 -3 -90 -6 l-53 -7 0
-148 0 -149 325 0 325 0 13 22 c8 13 36 61 64 108 27 47 76 128 108 180 32 52
67 119 78 150 22 65 97 353 93 358 -9 8 -57 -13 -89 -39 -24 -19 -43 -49 -57
-87 -60 -163 -75 -198 -112 -253 -42 -63 -100 -103 -141 -97 -20 3 -22 10 -27
98 -3 52 -11 105 -18 116 -21 38 -373 338 -432 369 -39 20 -49 19 -93 -10z"/>
</g>
</svg>
